<svg xmlns="http://www.w3.org/2000/svg" version="1.1" xmlns:xlink="http://www.w3.org/1999/xlink" xmlns:svgjs="http://svgjs.com/svgjs" viewBox="0 0 80 80" width="80" height="80"><g transform="matrix(3.3333333333333335,0,0,3.3333333333333335,0,0)"><path d="M17.5,15.5l-3-3-3,3V4a1,1,0,0,1,1-1h4a1,1,0,0,1,1,1Z" fill="none" stroke="#81b64f" stroke-linecap="round" stroke-linejoin="round"></path><path d="M17.5,4.5h2a1,1,0,0,1,1,1v17a1,1,0,0,1-1,1H5.5a2,2,0,0,1-2-2V2.5" fill="none" stroke="#81b64f" stroke-linecap="round" stroke-linejoin="round"></path><path d="M19.5,4.5v-3a1,1,0,0,0-1-1H5.5a2,2,0,0,0,0,4H9" fill="none" stroke="#81b64f" stroke-linecap="round" stroke-linejoin="round"></path></g></svg>