<svg xmlns="http://www.w3.org/2000/svg" version="1.1" xmlns:xlink="http://www.w3.org/1999/xlink" xmlns:svgjs="http://svgjs.com/svgjs" viewBox="0 0 80 80" width="80" height="80"><g transform="matrix(3.3333333333333335,0,0,3.3333333333333335,0,0)"><path d="M17.619 5.501 A1.437 1.437 0 1 0 20.493 5.501 A1.437 1.437 0 1 0 17.619 5.501 Z" fill="none" stroke="#81b64f" stroke-linecap="round" stroke-linejoin="round"></path><path d="M20,1.2l.328,1.076a.736.736,0,0,0,.869.5l1.091-.253a.992.992,0,0,1,.944,1.644L22.468,5a.74.74,0,0,0,0,1.008l.763.824a.992.992,0,0,1-.944,1.643L21.2,8.219a.736.736,0,0,0-.869.5L20,9.8a.985.985,0,0,1-1.887,0l-.328-1.076a.736.736,0,0,0-.869-.5l-1.091.253a.992.992,0,0,1-.944-1.643l.763-.824a.74.74,0,0,0,0-1.008l-.763-.823a.992.992,0,0,1,.944-1.644l1.091.253a.736.736,0,0,0,.869-.5L18.112,1.2A.985.985,0,0,1,20,1.2Z" fill="none" stroke="#81b64f" stroke-linecap="round" stroke-linejoin="round"></path><path d="M7.031,9.626a1.3,1.3,0,0,0,1.938,0L9.6,8.932a1.306,1.306,0,0,1,2.274.942l-.048.934a1.307,1.307,0,0,0,1.371,1.371l.934-.048a1.306,1.306,0,0,1,.942,2.274l-.694.627a1.3,1.3,0,0,0,0,1.938l.694.627a1.306,1.306,0,0,1-.942,2.274l-.934-.048a1.307,1.307,0,0,0-1.371,1.371l.048.934A1.306,1.306,0,0,1,9.6,23.07l-.627-.694a1.3,1.3,0,0,0-1.938,0L6.4,23.07a1.306,1.306,0,0,1-2.274-.942l.048-.934a1.307,1.307,0,0,0-1.371-1.371l-.934.048A1.306,1.306,0,0,1,.931,17.6l.694-.627a1.3,1.3,0,0,0,0-1.938l-.694-.627a1.306,1.306,0,0,1,.942-2.274l.934.048a1.307,1.307,0,0,0,1.371-1.371L4.13,9.874A1.306,1.306,0,0,1,6.4,8.932Z" fill="none" stroke="#81b64f" stroke-linecap="round" stroke-linejoin="round"></path><path d="M4.500 16.001 A3.500 3.500 0 1 0 11.500 16.001 A3.500 3.500 0 1 0 4.500 16.001 Z" fill="none" stroke="#81b64f" stroke-linecap="round" stroke-linejoin="round"></path></g></svg>