<svg xmlns="http://www.w3.org/2000/svg" version="1.1" xmlns:xlink="http://www.w3.org/1999/xlink" xmlns:svgjs="http://svgjs.com/svgjs" viewBox="0 0 80 80" width="80" height="80"><g transform="matrix(3.3333333333333335,0,0,3.3333333333333335,0,0)"><path d="M11.5 16.5L11.5 23.5" fill="none" stroke="#81b64f" stroke-linecap="round" stroke-linejoin="round"></path><path d="M11.5 0.5L11.5 2.5" fill="none" stroke="#81b64f" stroke-linecap="round" stroke-linejoin="round"></path><path d="M11.5 8.5L11.5 10.5" fill="none" stroke="#81b64f" stroke-linecap="round" stroke-linejoin="round"></path><path d="M20.646,8.354a.5.5,0,0,1-.353.146H4A.5.5,0,0,1,3.5,8V3A.5.5,0,0,1,4,2.5H20.293a.5.5,0,0,1,.353.146l2.5,2.5a.5.5,0,0,1,0,.708Z" fill="none" stroke="#81b64f" stroke-linecap="round" stroke-linejoin="round"></path><path d="M3.354,16.354a.5.5,0,0,0,.353.146H20a.5.5,0,0,0,.5-.5V11a.5.5,0,0,0-.5-.5H3.707a.5.5,0,0,0-.353.146l-2.5,2.5a.5.5,0,0,0,0,.708Z" fill="none" stroke="#81b64f" stroke-linecap="round" stroke-linejoin="round"></path></g></svg>