<svg xmlns="http://www.w3.org/2000/svg" version="1.1" xmlns:xlink="http://www.w3.org/1999/xlink" xmlns:svgjs="http://svgjs.com/svgjs" viewBox="0 0 140 140" width="140" height="140"><g transform="matrix(5.833333333333333,0,0,5.833333333333333,0,0)"><path d="M12,21.25a.25.25,0,0,1,.25.25h0a.25.25,0,0,1-.25.25h0a.25.25,0,0,1-.25-.25h0a.25.25,0,0,1,.25-.25" fill="none" stroke="#81b64f" stroke-linecap="round" stroke-linejoin="round"></path><path d="M12 21.25L12 21.25" fill="none" stroke="#81b64f" stroke-linecap="round" stroke-linejoin="round"></path><path d="M5.500 0.500 L18.500 0.500 L18.500 23.500 L5.500 23.500 Z" fill="none" stroke="#81b64f" stroke-linecap="round" stroke-linejoin="round"></path><path d="M18.5 19.5L5.5 19.5" fill="none" stroke="#81b64f" stroke-linecap="round" stroke-linejoin="round"></path><path d="M18.5 4.5L5.5 4.5" fill="none" stroke="#81b64f" stroke-linecap="round" stroke-linejoin="round"></path><path d="M10.5 2.5L13.5 2.5" fill="none" stroke="#81b64f" stroke-linecap="round" stroke-linejoin="round"></path><path d="M9.5,10a2.5,2.5,0,1,1,3.31,2.366A1.2,1.2,0,0,0,12,13.5V14" fill="none" stroke="#81b64f" stroke-linecap="round" stroke-linejoin="round"></path><path d="M12,16a.25.25,0,1,1-.25.25A.25.25,0,0,1,12,16" fill="none" stroke="#81b64f" stroke-linecap="round" stroke-linejoin="round"></path></g></svg>