<svg xmlns="http://www.w3.org/2000/svg" version="1.1" xmlns:xlink="http://www.w3.org/1999/xlink" xmlns:svgjs="http://svgjs.com/svgjs" viewBox="0 0 140 140" width="140" height="140"><g transform="matrix(5.833333333333333,0,0,5.833333333333333,0,0)"><path d="M18.25,2.251c-1.061,1.061-3.04.96-4.75-.75L12,3l8,8,3.5-3.5Z" fill="none" stroke="#81b64f" stroke-linecap="round" stroke-linejoin="round"></path><path d="M11.939,9.94,8.146,6.148A4,4,0,0,0,2.854.855L5,3V5H3L.854,2.855A4,4,0,0,0,6.146,8.148L9.939,11.94" fill="none" stroke="#81b64f" stroke-linecap="round" stroke-linejoin="round"></path><path d="M12.061,14.062l3.793,3.793a4,4,0,0,0,5.292,5.293L19,21V19h2l2.146,2.147a4,4,0,0,0-5.292-5.293l-3.793-3.793" fill="none" stroke="#81b64f" stroke-linecap="round" stroke-linejoin="round"></path><path d="M15.439,6.44.939,20.94a1.5,1.5,0,0,0,2.122,2.122l14.5-14.5" fill="none" stroke="#81b64f" stroke-linecap="round" stroke-linejoin="round"></path></g></svg>