<svg xmlns="http://www.w3.org/2000/svg" version="1.1" xmlns:xlink="http://www.w3.org/1999/xlink" xmlns:svgjs="http://svgjs.com/svgjs" viewBox="0 0 80 80" width="80" height="80"><g transform="matrix(3.3333333333333335,0,0,3.3333333333333335,0,0)"><path d="M8.5,11.5a.25.25,0,1,1-.25.25.249.249,0,0,1,.25-.25" fill="none" stroke="#81b64f" stroke-linecap="round" stroke-linejoin="round"></path><path d="M16.5,18a.25.25,0,1,1-.25.25A.25.25,0,0,1,16.5,18" fill="none" stroke="#81b64f" stroke-linecap="round" stroke-linejoin="round"></path><path d="M16.5 16L16.5 14" fill="none" stroke="#81b64f" stroke-linecap="round" stroke-linejoin="round"></path><path d="M7.971,18.673,1.362,21.749,3.95,16.583A8.612,8.612,0,0,1,.5,9.883C.5,4.7,5.648.5,12,.5S23.5,4.7,23.5,9.883" fill="none" stroke="#81b64f" stroke-linecap="round" stroke-linejoin="round"></path><path d="M9.7,16.381c0,3.108,3.089,5.629,6.9,5.629a8.276,8.276,0,0,0,2.418-.356L22.983,23.5,21.43,20.4a5.166,5.166,0,0,0,2.07-4.019c0-3.109-3.089-5.63-6.9-5.63S9.7,13.272,9.7,16.381Z" fill="none" stroke="#81b64f" stroke-linecap="round" stroke-linejoin="round"></path><path d="M6.5,6A2,2,0,1,1,9.115,7.9.888.888,0,0,0,8.5,8.75V9.5" fill="none" stroke="#81b64f" stroke-linecap="round" stroke-linejoin="round"></path></g></svg>